# xmcd
#
# Track frame offsets:
#	150
#	20641
#	35364
#	57753
#	77921
#	96867
#	118341
#	131865
#	148068
#	165593
#	177873
#	188317
#	197618
#	204247
#	214604
#	228277
#	239989
#	250137
#
# Disc length: 3496 seconds
#
# Revision: 0
# Processed by: cddbd v1.5.2PL0 Copyright (c) Steve Scherf et al.
# Submitted via: audiograbber 1.83.01
#
DISCID=fd0da612
DTITLE=Austria Saxophon Quartett - Saxophon-Quartette
DYEAR=1992
DGENRE=Classical
TTITLE0=Rossini à la carte (Medley) (bearb. von Rolf Schneebiegl)
TTITLE1=Air (bearb. von Jeremy Wall)
TTITLE2=Symphonie Militaire (bearb. von Herbert Ferstl)
TTITLE3=Ouvertüre (bearb. von Rolf Müller)
TTITLE4=Nr. 3 Sevilla (Sevillanas) (bearb. von Marcel Mule)
TTITLE5=Präludium und Fuge g-moll BWV 16 (bearb. von Kaiser-Lindemann)
TTITLE6=Carmen (Medley) (bearb. von Rolf Müller)
TTITLE7=Valse Habélice
TTITLE8=Serenata Espagnola op. 181 (bearb. von Paul Kühnstedt)
TTITLE9=The Cascades (bearb. von Arthur Frackenpohl)
TTITLE10=La Cumparsita (bearb. von H. Hammerschmid)
TTITLE11=Charles' Töne
TTITLE12=Le petit nègre (Cake-Walk) (bearb. von Karl Lörch)
TTITLE13=The Pink Panther (bearb. von Arthur Frackenpohl)
TTITLE14=Nr. 2 Tango a-moll (bearb. von Rolf-Hans Müller)
TTITLE15=Ragtime Company
TTITLE16=When I'm Sixty-Four (bearb. von Ramon Ricker)
TTITLE17=Der Zigeunerbaron (Operette in 3 Akten) (Auszug)
EXTD=
EXTT0=
EXTT1=
EXTT2=
EXTT3=
EXTT4=
EXTT5=
EXTT6=
EXTT7=
EXTT8=
EXTT9=
EXTT10=
EXTT11=
EXTT12=
EXTT13=
EXTT14=
EXTT15=
EXTT16=
EXTT17=
PLAYORDER=
